<svg width="92" height="20" viewBox="0 0 92 20" fill="none" xmlns="http://www.w3.org/2000/svg">
<path d="M9.04897 2.92708C9.34897 2.00608 10.652 2.00608 10.951 2.92708L12.021 6.21908C12.0863 6.41957 12.2134 6.59426 12.384 6.71818C12.5547 6.84211 12.7601 6.90892 12.971 6.90908H16.433C17.402 6.90908 17.804 8.14908 17.021 8.71908L14.221 10.7531C14.05 10.8771 13.9227 11.0521 13.8573 11.2529C13.7919 11.4538 13.7918 11.6702 13.857 11.8711L14.927 15.1631C15.227 16.0841 14.172 16.8511 13.387 16.2811L10.587 14.2471C10.4162 14.1231 10.2105 14.0563 9.99947 14.0563C9.78842 14.0563 9.58277 14.1231 9.41197 14.2471L6.61197 16.2811C5.82797 16.8511 4.77397 16.0841 5.07297 15.1631L6.14297 11.8711C6.20815 11.6702 6.20803 11.4538 6.14264 11.2529C6.07725 11.0521 5.94994 10.8771 5.77897 10.7531L2.97997 8.72008C2.19697 8.15008 2.59997 6.91008 3.56797 6.91008H7.02897C7.24002 6.91013 7.44568 6.84342 7.6165 6.71948C7.78732 6.59554 7.91455 6.42073 7.97997 6.22008L9.04997 2.92808L9.04897 2.92708Z" fill="#EFDB2B"/>
<path d="M27.049 2.92708C27.349 2.00608 28.652 2.00608 28.951 2.92708L30.021 6.21908C30.0863 6.41957 30.2134 6.59426 30.384 6.71818C30.5547 6.84211 30.7601 6.90892 30.971 6.90908H34.433C35.402 6.90908 35.804 8.14908 35.021 8.71908L32.221 10.7531C32.05 10.8771 31.9227 11.0521 31.8573 11.2529C31.7919 11.4538 31.7918 11.6702 31.857 11.8711L32.927 15.1631C33.227 16.0841 32.172 16.8511 31.387 16.2811L28.587 14.2471C28.4162 14.1231 28.2105 14.0563 27.9995 14.0563C27.7884 14.0563 27.5828 14.1231 27.412 14.2471L24.612 16.2811C23.828 16.8511 22.774 16.0841 23.073 15.1631L24.143 11.8711C24.2081 11.6702 24.208 11.4538 24.1426 11.2529C24.0773 11.0521 23.9499 10.8771 23.779 10.7531L20.98 8.72008C20.197 8.15008 20.6 6.91008 21.568 6.91008H25.029C25.24 6.91013 25.4457 6.84342 25.6165 6.71948C25.7873 6.59554 25.9145 6.42073 25.98 6.22008L27.05 2.92808L27.049 2.92708Z" fill="#EFDB2B"/>
<path d="M45.049 2.92708C45.349 2.00608 46.652 2.00608 46.951 2.92708L48.021 6.21908C48.0863 6.41957 48.2134 6.59426 48.384 6.71818C48.5547 6.84211 48.7601 6.90892 48.971 6.90908H52.433C53.402 6.90908 53.804 8.14908 53.021 8.71908L50.221 10.7531C50.05 10.8771 49.9227 11.0521 49.8573 11.2529C49.7919 11.4538 49.7918 11.6702 49.857 11.8711L50.927 15.1631C51.227 16.0841 50.172 16.8511 49.387 16.2811L46.587 14.2471C46.4162 14.1231 46.2105 14.0563 45.9995 14.0563C45.7884 14.0563 45.5828 14.1231 45.412 14.2471L42.612 16.2811C41.828 16.8511 40.774 16.0841 41.073 15.1631L42.143 11.8711C42.2081 11.6702 42.208 11.4538 42.1426 11.2529C42.0773 11.0521 41.9499 10.8771 41.779 10.7531L38.98 8.72008C38.197 8.15008 38.6 6.91008 39.568 6.91008H43.029C43.24 6.91013 43.4457 6.84342 43.6165 6.71948C43.7873 6.59554 43.9145 6.42073 43.98 6.22008L45.05 2.92808L45.049 2.92708Z" fill="#EFDB2B"/>
<path d="M63.049 2.92708C63.349 2.00608 64.652 2.00608 64.951 2.92708L66.021 6.21908C66.0863 6.41957 66.2134 6.59426 66.384 6.71818C66.5547 6.84211 66.7601 6.90892 66.971 6.90908H70.433C71.402 6.90908 71.804 8.14908 71.021 8.71908L68.221 10.7531C68.05 10.8771 67.9227 11.0521 67.8573 11.2529C67.7919 11.4538 67.7918 11.6702 67.857 11.8711L68.927 15.1631C69.227 16.0841 68.172 16.8511 67.387 16.2811L64.587 14.2471C64.4162 14.1231 64.2105 14.0563 63.9995 14.0563C63.7884 14.0563 63.5828 14.1231 63.412 14.2471L60.612 16.2811C59.828 16.8511 58.774 16.0841 59.073 15.1631L60.143 11.8711C60.2081 11.6702 60.208 11.4538 60.1426 11.2529C60.0773 11.0521 59.9499 10.8771 59.779 10.7531L56.98 8.72008C56.197 8.15008 56.6 6.91008 57.568 6.91008H61.029C61.24 6.91013 61.4457 6.84342 61.6165 6.71948C61.7873 6.59554 61.9145 6.42073 61.98 6.22008L63.05 2.92808L63.049 2.92708Z" fill="#EFDB2B"/>
<path d="M81.049 2.92708C81.349 2.00608 82.652 2.00608 82.951 2.92708L84.021 6.21908C84.0863 6.41957 84.2134 6.59426 84.384 6.71818C84.5547 6.84211 84.7601 6.90892 84.971 6.90908H88.433C89.402 6.90908 89.804 8.14908 89.021 8.71908L86.221 10.7531C86.05 10.8771 85.9227 11.0521 85.8573 11.2529C85.7919 11.4538 85.7918 11.6702 85.857 11.8711L86.927 15.1631C87.227 16.0841 86.172 16.8511 85.387 16.2811L82.587 14.2471C82.4162 14.1231 82.2105 14.0563 81.9995 14.0563C81.7884 14.0563 81.5828 14.1231 81.412 14.2471L78.612 16.2811C77.828 16.8511 76.774 16.0841 77.073 15.1631L78.143 11.8711C78.2081 11.6702 78.208 11.4538 78.1426 11.2529C78.0773 11.0521 77.9499 10.8771 77.779 10.7531L74.98 8.72008C74.197 8.15008 74.6 6.91008 75.568 6.91008H79.029C79.24 6.91013 79.4457 6.84342 79.6165 6.71948C79.7873 6.59554 79.9145 6.42073 79.98 6.22008L81.05 2.92808L81.049 2.92708Z" fill="#A9A9A9"/>
</svg>
